<?xml version="1.0" standalone="no"?>
<svg xmlns="http://www.w3.org/2000/svg" xmlns:xlink="http://www.w3.org/1999/xlink" width="203pt" height="399pt" viewBox="0.00 0.00 203.2 399.2">
<g id="graph0" class="graph" transform="translate(18.55806395531215,310.33295187229857) scale(0.7578582832551993)" data-name="G">

<polygon fill="white" stroke="none" points="-4,4 -4,-395.2 199.2,-395.2 199.2,4 -4,4"/>
<!-- 1 -->
<g id="node1" class="node" pointer-events="visible" data-name="1">

<ellipse fill="none" stroke="black" cx="54.2" cy="-373.2" rx="27" ry="18"/>
<text text-anchor="middle" x="54.2" y="-369" font-family="Times,serif" font-size="14.00">1</text>
</g>
<!-- &#45;2 -->
<g id="node2" class="node" pointer-events="visible" data-name="2" data-comment="-2">

<ellipse fill="none" stroke="black" cx="54.2" cy="-106.8" rx="27" ry="18"/>
<text text-anchor="middle" x="54.2" y="-102.6" font-family="Times,serif" font-size="14.00">2</text>
</g>
<!-- 1&#45;&#45;2 -->
<g id="edge1" class="edge" data-name="1--2">

<path fill="none" stroke="black" d="M35.73,-359.72C28.09,-353.71 19.74,-345.92 14.2,-337.2 5.58,-323.62 6.45,-318.34 4.2,-302.4 -3.58,-247.13 -0.33,-230.25 18.2,-177.6 25,-158.31 36.19,-137.66 44.29,-123.87"/>
<text text-anchor="middle" x="6.7" y="-235.8" font-family="Times,serif" font-size="14.00">8</text>
</g>
<!-- 3 -->

<!-- 1&#45;&#45;6 -->
<g id="edge10" class="edge" data-name="1--6">

<path fill="none" stroke="black" d="M66.75,-357.08C79.88,-341.25 100.39,-316.52 113.56,-300.64"/>
<text text-anchor="middle" x="103.2" y="-324.6" font-family="Times,serif" font-size="14.00">10</text>
</g>
<!-- 3 -->
<g id="node3" class="node" pointer-events="visible" data-name="3">

<ellipse fill="none" stroke="black" cx="126.2" cy="-18" rx="27" ry="18"/>
<text text-anchor="middle" x="126.2" y="-13.8" font-family="Times,serif" font-size="14.00">3</text>
</g><g id="node4" class="node" pointer-events="visible" data-name="4" data-comment="3">

<ellipse fill="none" stroke="black" cx="54.2" cy="-195.6" rx="27" ry="18"/>
<text text-anchor="middle" x="54.2" y="-191.4" font-family="Times,serif" font-size="14.00">4</text>
</g>
<!-- 2&#45;&#45;3 -->
<g id="edge4" class="edge" data-name="1--4" data-comment="2--3">

<path fill="none" stroke="black" d="M41.39,-357.04C30.97,-343.65 17.06,-323.08 11.2,-302.4 6.84,-287.01 6.84,-281.79 11.2,-266.4 17.06,-245.72 30.97,-225.15 41.39,-211.76"/>
<text text-anchor="middle" x="14.7" y="-280.2" font-family="Times,serif" font-size="14.00">4</text>
</g>
<!-- 3&#45;&#45;1 -->
<g id="node5" class="node" pointer-events="visible" data-name="5" data-comment="3--1">

<ellipse fill="none" stroke="black" cx="54.2" cy="-284.4" rx="27" ry="18"/>
<text text-anchor="middle" x="54.2" y="-280.2" font-family="Times,serif" font-size="14.00">5</text>
</g>
<!-- 1&#45;&#45;5 -->
<g id="edge7" class="edge" data-name="1--5">

<path fill="none" stroke="black" d="M54.2,-355.05C54.2,-339.93 54.2,-318.01 54.2,-302.81"/>
<text text-anchor="middle" x="57.7" y="-324.6" font-family="Times,serif" font-size="14.00">2</text>
</g>
<!-- 6 -->
<g id="node6" class="node" pointer-events="visible" data-name="6">

<ellipse fill="none" stroke="black" cx="126.2" cy="-284.4" rx="27" ry="18"/>
<text text-anchor="middle" x="126.2" y="-280.2" font-family="Times,serif" font-size="14.00">6</text>
</g>
<!-- 2&#45;&#45;3 -->
<g id="edge2" class="edge" data-name="2--3">

<path fill="none" stroke="black" d="M66.75,-90.68C79.88,-74.85 100.39,-50.12 113.56,-34.24"/>
<text text-anchor="middle" x="99.7" y="-58.2" font-family="Times,serif" font-size="14.00">2</text>
</g>
<!-- 3&#45;&#45;1 -->
<g id="edge3" class="edge" data-name="3--1">

<path fill="none" stroke="black" d="M142.11,-32.95C158.36,-48.81 181.2,-76.36 181.2,-105.8 181.2,-285.4 181.2,-285.4 181.2,-285.4 181.2,-334.01 117.01,-357.37 79.9,-366.82"/>
<text text-anchor="middle" x="188.2" y="-191.4" font-family="Times,serif" font-size="14.00">20</text>
</g>
<!-- 4&#45;&#45;2 -->
<g id="edge6" class="edge" data-name="4--2">

<path fill="none" stroke="black" d="M54.2,-177.45C54.2,-162.33 54.2,-140.41 54.2,-125.21"/>
<text text-anchor="middle" x="57.7" y="-147" font-family="Times,serif" font-size="14.00">6</text>
</g>
<!-- 6&#45;&#45;3 -->
<g id="edge8" class="edge" data-name="6--3">

<path fill="none" stroke="black" d="M126.2,-266.05C126.2,-218.14 126.2,-84.4 126.2,-36.41"/>
<text text-anchor="middle" x="129.7" y="-147" font-family="Times,serif" font-size="14.00">8</text>
</g><g id="edge5" class="edge" data-name="5--4" data-comment="6--3">

<path fill="none" stroke="black" d="M54.2,-266.25C54.2,-251.13 54.2,-229.21 54.2,-214.01"/>
<text text-anchor="middle" x="57.7" y="-235.8" font-family="Times,serif" font-size="14.00">5</text>
</g>
<!-- 6&#45;&#45;4 -->
<!-- 6&#45;&#45;4 -->
<g id="edge9" class="edge" data-name="6--4">

<path fill="none" stroke="black" d="M113.66,-268.28C100.53,-252.45 80.01,-227.72 66.84,-211.84"/>
<text text-anchor="middle" x="99.7" y="-235.8" font-family="Times,serif" font-size="14.00">9</text>
</g>

</g>
</svg>