<?xml version="1.0" standalone="no"?>
<svg xmlns="http://www.w3.org/2000/svg" xmlns:xlink="http://www.w3.org/1999/xlink" width="423pt" height="330pt" viewBox="0.00 0.00 423.21 329.92">
<g id="graph0" class="graph" transform="translate(39.86974351648121,296.36528097918125) scale(0.8705505632961241)" data-name="G">

<polygon fill="white" stroke="none" points="-4,4 -4,-325.92 419.21,-325.92 419.21,4 -4,4"/>
<!-- shortName -->
<g id="node1" class="node" pointer-events="visible" data-name="shortName">

<ellipse fill="none" stroke="black" cx="27" cy="-169.03" rx="27" ry="18"/>
<text text-anchor="middle" x="27" y="-164.83" font-family="Times,serif" font-size="14.00">1</text>
</g>
<!-- F1 -->
<g id="node2" class="node" pointer-events="visible" data-name="0" data-comment="F1">

<ellipse fill="none" stroke="black" cx="283.97" cy="-205.92" rx="27" ry="18"/>
<text text-anchor="middle" x="283.97" y="-201.72" font-family="Times,serif" font-size="14.00">0</text>
</g>
<!-- 0&#45;&gt;shortName -->
<g id="edge1" class="edge" data-name="0-&gt;shortName">

<path fill="none" stroke="black" d="M257.44,-202.11C211.66,-195.54 117.69,-182.05 64.98,-174.48"/>
<polygon fill="black" stroke="black" points="65.67,-171.05 55.27,-173.09 64.67,-177.97 65.67,-171.05"/>
<text text-anchor="middle" x="148.83" y="-191.72" font-family="Times,serif" font-size="14.00">10</text>
</g>
<!-- 2 -->
<g id="node3" class="node" pointer-events="visible" data-name="2">

<ellipse fill="none" stroke="black" cx="269.9" cy="-303.92" rx="27" ry="18"/>
<text text-anchor="middle" x="269.9" y="-299.72" font-family="Times,serif" font-size="14.00">2</text>
</g>
<!-- 2&#45;&gt;shortName -->
<g id="edge2" class="edge" data-name="2-&gt;0" data-comment="2-&gt;shortName">

<path fill="none" stroke="black" d="M272.48,-285.94C274.51,-271.8 277.38,-251.81 279.75,-235.34"/>
<polygon fill="black" stroke="black" points="283.19,-236.01 281.15,-225.61 276.26,-235.01 283.19,-236.01"/>
<text text-anchor="middle" x="269.89" y="-259.48" font-family="Times,serif" font-size="14.00">12</text>
</g>
<!-- 6 -->
<g id="node4" class="node" pointer-events="visible" data-name="6">

<ellipse fill="none" stroke="black" cx="388.21" cy="-150.89" rx="27" ry="18"/>
<text text-anchor="middle" x="388.21" y="-146.69" font-family="Times,serif" font-size="14.00">6</text>
</g>
<!-- 6&#45;&gt;shortName -->
<!-- 6&#45;&gt;0 -->
<g id="edge3" class="edge" data-name="6-&gt;0">

<path fill="none" stroke="black" d="M366.61,-162.29C351.8,-170.11 331.9,-180.62 315.34,-189.36"/>
<polygon fill="black" stroke="black" points="314.09,-186.06 306.88,-193.83 317.36,-192.25 314.09,-186.06"/>
<text text-anchor="middle" x="329.19" y="-182.55" font-family="Times,serif" font-size="14.00">20</text>
</g>
<g id="node5" class="node" pointer-events="visible" data-name="4" data-comment="6-&gt;0">

<ellipse fill="none" stroke="black" cx="368.08" cy="-34.75" rx="27" ry="18"/>
<text text-anchor="middle" x="368.08" y="-30.55" font-family="Times,serif" font-size="14.00">4</text>
</g>
<!-- 6&#45;&gt;4 -->
<g id="edge4" class="edge" data-name="6-&gt;4">

<path fill="none" stroke="black" d="M385.06,-132.74C381.87,-114.33 376.89,-85.55 373.14,-63.93"/>
<polygon fill="black" stroke="black" points="376.62,-63.52 371.47,-54.26 369.72,-64.71 376.62,-63.52"/>
<text text-anchor="middle" x="371.17" y="-97.14" font-family="Times,serif" font-size="14.00">25</text>
</g>
<!-- 3 -->
<g id="node6" class="node" pointer-events="visible" data-name="3">

<ellipse fill="none" stroke="black" cx="251.41" cy="-18" rx="27" ry="18"/>
<text text-anchor="middle" x="251.41" y="-13.8" font-family="Times,serif" font-size="14.00">3</text>
</g>
<!-- 3&#45;&gt;shortName -->
<!-- 3&#45;&gt;4 -->
<g id="edge5" class="edge" data-name="3-&gt;4">

<path fill="none" stroke="black" d="M278.18,-21.84C293.59,-24.06 313.22,-26.87 330.19,-29.31"/>
<polygon fill="black" stroke="black" points="329.55,-32.75 339.94,-30.71 330.54,-25.82 329.55,-32.75"/>
<text text-anchor="middle" x="302.92" y="-30.6" font-family="Times,serif" font-size="14.00">30</text>
</g><g id="edge7" class="edge" data-name="4-&gt;5" data-comment="3-&gt;4">

<path fill="none" stroke="black" d="M346.72,-46.03C317.4,-61.51 264.49,-89.44 230.7,-107.28"/>
<polygon fill="black" stroke="black" points="229.43,-103.99 222.22,-111.76 232.69,-110.18 229.43,-103.99"/>
<text text-anchor="middle" x="276.94" y="-83.37" font-family="Times,serif" font-size="14.00">60</text>
</g>
<g id="node7" class="node" pointer-events="visible" data-name="5" data-comment="3-&gt;4">

<ellipse fill="none" stroke="black" cx="199.42" cy="-123.79" rx="27" ry="18"/>
<text text-anchor="middle" x="199.42" y="-119.59" font-family="Times,serif" font-size="14.00">5</text>
</g>
<!-- 3&#45;&gt;5 -->
<!-- 3&#45;&gt;5 -->
<g id="edge6" class="edge" data-name="3-&gt;5">

<path fill="none" stroke="black" d="M242.82,-35.47C234.74,-51.93 222.48,-76.86 213.06,-96.05"/>
<polygon fill="black" stroke="black" points="209.96,-94.42 208.69,-104.94 216.24,-97.5 209.96,-94.42"/>
<text text-anchor="middle" x="221.73" y="-75.48" font-family="Times,serif" font-size="14.00">5</text>
</g>

<!-- 5&#45;&gt;shortName -->
<g id="edge8" class="edge" data-name="5-&gt;0" data-comment="5-&gt;shortName">

<path fill="none" stroke="black" d="M214.93,-138.85C227.68,-151.24 245.96,-168.99 260.5,-183.12"/>
<polygon fill="black" stroke="black" points="257.87,-185.44 267.48,-189.9 262.74,-180.42 257.87,-185.44"/>
<text text-anchor="middle" x="234.93" y="-169.28" font-family="Times,serif" font-size="14.00">15</text>
</g>
</g>
</svg>